<mxfile host="app.diagrams.net" modified="2023-12-06T22:51:24.332Z" agent="Mozilla/5.0 (Windows NT 10.0; Win64; x64) AppleWebKit/537.36 (KHTML, like Gecko) Chrome/119.0.0.0 Safari/537.36" etag="lVTohdVGGCouqRXU-Km7" version="22.1.5" type="device">
  <diagram name="Page-1" id="W_xYY2mBdeJjj8uaBrzF">
    <mxGraphModel dx="1635" dy="2214" grid="1" gridSize="10" guides="1" tooltips="1" connect="1" arrows="1" fold="1" page="0" pageScale="1" pageWidth="827" pageHeight="1169" math="0" shadow="0">
      <root>
        <mxCell id="0" />
        <mxCell id="1" parent="0" />
        <mxCell id="AAFjQnPi5kUjQPwpxVuT-1" value="" style="verticalLabelPosition=bottom;verticalAlign=top;html=1;shape=mxgraph.flowchart.on-page_reference;fillColor=none;" parent="1" vertex="1">
          <mxGeometry x="-320" y="70" width="60" height="60" as="geometry" />
        </mxCell>
        <mxCell id="d6f9d9BtoIqbWKQXRGAZ-1" value="" style="rounded=0;whiteSpace=wrap;html=1;rotation=-90;fillColor=#000000;" parent="1" vertex="1">
          <mxGeometry x="-200" y="92.5" width="60" height="15" as="geometry" />
        </mxCell>
        <mxCell id="d6f9d9BtoIqbWKQXRGAZ-3" value="" style="endArrow=classic;html=1;rounded=0;exitX=1;exitY=0.5;exitDx=0;exitDy=0;exitPerimeter=0;entryX=0.5;entryY=0;entryDx=0;entryDy=0;" parent="1" source="AAFjQnPi5kUjQPwpxVuT-1" target="d6f9d9BtoIqbWKQXRGAZ-1" edge="1">
          <mxGeometry width="50" height="50" relative="1" as="geometry">
            <mxPoint x="-240" y="230" as="sourcePoint" />
            <mxPoint x="-190" y="180" as="targetPoint" />
          </mxGeometry>
        </mxCell>
        <mxCell id="d6f9d9BtoIqbWKQXRGAZ-4" value="" style="verticalLabelPosition=bottom;verticalAlign=top;html=1;shape=mxgraph.flowchart.on-page_reference;fillColor=none;" parent="1" vertex="1">
          <mxGeometry x="-80" y="70" width="60" height="60" as="geometry" />
        </mxCell>
        <mxCell id="d6f9d9BtoIqbWKQXRGAZ-5" value="" style="endArrow=classic;html=1;rounded=0;exitX=0.5;exitY=1;exitDx=0;exitDy=0;entryX=0;entryY=0.5;entryDx=0;entryDy=0;entryPerimeter=0;" parent="1" source="d6f9d9BtoIqbWKQXRGAZ-1" target="d6f9d9BtoIqbWKQXRGAZ-4" edge="1">
          <mxGeometry width="50" height="50" relative="1" as="geometry">
            <mxPoint x="-170" y="210" as="sourcePoint" />
            <mxPoint x="-120" y="160" as="targetPoint" />
          </mxGeometry>
        </mxCell>
        <mxCell id="d6f9d9BtoIqbWKQXRGAZ-7" value="" style="verticalLabelPosition=bottom;verticalAlign=top;html=1;shape=mxgraph.flowchart.on-page_reference;fillColor=none;" parent="1" vertex="1">
          <mxGeometry x="-200" y="210" width="60" height="60" as="geometry" />
        </mxCell>
        <mxCell id="d6f9d9BtoIqbWKQXRGAZ-8" value="" style="endArrow=classic;html=1;rounded=0;entryX=0.25;entryY=0;entryDx=0;entryDy=0;exitX=0.145;exitY=0.145;exitDx=0;exitDy=0;exitPerimeter=0;edgeStyle=elbowEdgeStyle;" parent="1" source="d6f9d9BtoIqbWKQXRGAZ-7" target="d6f9d9BtoIqbWKQXRGAZ-1" edge="1">
          <mxGeometry width="50" height="50" relative="1" as="geometry">
            <mxPoint x="-270" y="230" as="sourcePoint" />
            <mxPoint x="-220" y="180" as="targetPoint" />
            <Array as="points">
              <mxPoint x="-210" y="170" />
            </Array>
          </mxGeometry>
        </mxCell>
        <mxCell id="d6f9d9BtoIqbWKQXRGAZ-9" value="" style="endArrow=classic;html=1;rounded=0;exitX=0.25;exitY=1;exitDx=0;exitDy=0;entryX=0.855;entryY=0.145;entryDx=0;entryDy=0;entryPerimeter=0;edgeStyle=elbowEdgeStyle;" parent="1" source="d6f9d9BtoIqbWKQXRGAZ-1" target="d6f9d9BtoIqbWKQXRGAZ-7" edge="1">
          <mxGeometry width="50" height="50" relative="1" as="geometry">
            <mxPoint x="-40" y="200" as="sourcePoint" />
            <mxPoint x="10" y="150" as="targetPoint" />
            <Array as="points">
              <mxPoint x="-130" y="160" />
            </Array>
          </mxGeometry>
        </mxCell>
        <mxCell id="d6f9d9BtoIqbWKQXRGAZ-10" value="&lt;font style=&quot;font-size: 14px;&quot;&gt;Nastup&lt;/font&gt;" style="text;html=1;strokeColor=none;fillColor=none;align=center;verticalAlign=middle;whiteSpace=wrap;rounded=0;" parent="1" vertex="1">
          <mxGeometry x="-200" y="180" width="60" height="30" as="geometry" />
        </mxCell>
        <mxCell id="d6f9d9BtoIqbWKQXRGAZ-11" value="" style="verticalLabelPosition=bottom;verticalAlign=top;html=1;shape=mxgraph.flowchart.on-page_reference;fillColor=none;" parent="1" vertex="1">
          <mxGeometry x="-80" y="-70" width="60" height="60" as="geometry" />
        </mxCell>
        <mxCell id="d6f9d9BtoIqbWKQXRGAZ-12" value="&lt;font style=&quot;font-size: 14px;&quot;&gt;4&lt;/font&gt;" style="text;html=1;strokeColor=none;fillColor=none;align=center;verticalAlign=middle;whiteSpace=wrap;rounded=0;" parent="1" vertex="1">
          <mxGeometry x="-80" y="-55" width="60" height="30" as="geometry" />
        </mxCell>
        <mxCell id="d6f9d9BtoIqbWKQXRGAZ-13" value="" style="endArrow=classic;html=1;rounded=0;exitX=0;exitY=0.5;exitDx=0;exitDy=0;exitPerimeter=0;entryX=0.75;entryY=0;entryDx=0;entryDy=0;edgeStyle=orthogonalEdgeStyle;" parent="1" source="d6f9d9BtoIqbWKQXRGAZ-11" target="d6f9d9BtoIqbWKQXRGAZ-1" edge="1">
          <mxGeometry width="50" height="50" relative="1" as="geometry">
            <mxPoint x="-80" as="sourcePoint" />
            <mxPoint x="-190" y="-50" as="targetPoint" />
            <Array as="points">
              <mxPoint x="-200" y="-40" />
              <mxPoint x="-200" y="85" />
            </Array>
          </mxGeometry>
        </mxCell>
        <mxCell id="d6f9d9BtoIqbWKQXRGAZ-14" value="" style="rounded=0;whiteSpace=wrap;html=1;rotation=-90;fillColor=#000000;" parent="1" vertex="1">
          <mxGeometry x="40" y="107.5" width="60" height="15" as="geometry" />
        </mxCell>
        <mxCell id="d6f9d9BtoIqbWKQXRGAZ-15" value="" style="endArrow=classic;html=1;rounded=0;exitX=1;exitY=0.5;exitDx=0;exitDy=0;exitPerimeter=0;entryX=0.75;entryY=0;entryDx=0;entryDy=0;" parent="1" source="d6f9d9BtoIqbWKQXRGAZ-4" target="d6f9d9BtoIqbWKQXRGAZ-14" edge="1">
          <mxGeometry width="50" height="50" relative="1" as="geometry">
            <mxPoint x="20" y="220" as="sourcePoint" />
            <mxPoint x="70" y="170" as="targetPoint" />
          </mxGeometry>
        </mxCell>
        <mxCell id="d6f9d9BtoIqbWKQXRGAZ-16" value="" style="endArrow=classic;html=1;rounded=0;exitX=1;exitY=0.5;exitDx=0;exitDy=0;exitPerimeter=0;edgeStyle=orthogonalEdgeStyle;entryX=0.5;entryY=0;entryDx=0;entryDy=0;" parent="1" source="d6f9d9BtoIqbWKQXRGAZ-7" target="d6f9d9BtoIqbWKQXRGAZ-14" edge="1">
          <mxGeometry width="50" height="50" relative="1" as="geometry">
            <mxPoint x="-40" y="270" as="sourcePoint" />
            <mxPoint x="50" y="160" as="targetPoint" />
            <Array as="points">
              <mxPoint y="240" />
              <mxPoint y="115" />
            </Array>
          </mxGeometry>
        </mxCell>
        <mxCell id="d6f9d9BtoIqbWKQXRGAZ-19" value="" style="endArrow=classic;html=1;rounded=0;exitX=0;exitY=0.5;exitDx=0;exitDy=0;exitPerimeter=0;entryX=0.5;entryY=1;entryDx=0;entryDy=0;" parent="1" source="d6f9d9BtoIqbWKQXRGAZ-21" target="d6f9d9BtoIqbWKQXRGAZ-20" edge="1">
          <mxGeometry width="50" height="50" relative="1" as="geometry">
            <mxPoint x="540" y="210" as="sourcePoint" />
            <mxPoint x="450" y="200" as="targetPoint" />
          </mxGeometry>
        </mxCell>
        <mxCell id="d6f9d9BtoIqbWKQXRGAZ-20" value="" style="rounded=0;whiteSpace=wrap;html=1;rotation=-90;fillColor=#FFFFFF;" parent="1" vertex="1">
          <mxGeometry x="410" y="202.5" width="60" height="15" as="geometry" />
        </mxCell>
        <mxCell id="d6f9d9BtoIqbWKQXRGAZ-21" value="" style="verticalLabelPosition=bottom;verticalAlign=top;html=1;shape=mxgraph.flowchart.on-page_reference;fillColor=none;" parent="1" vertex="1">
          <mxGeometry x="560" y="180" width="60" height="60" as="geometry" />
        </mxCell>
        <mxCell id="d6f9d9BtoIqbWKQXRGAZ-24" value="&lt;font style=&quot;font-size: 14px;&quot;&gt;lanovka&lt;/font&gt;" style="text;html=1;strokeColor=none;fillColor=none;align=center;verticalAlign=middle;whiteSpace=wrap;rounded=0;" parent="1" vertex="1">
          <mxGeometry x="560" y="150" width="60" height="30" as="geometry" />
        </mxCell>
        <mxCell id="d6f9d9BtoIqbWKQXRGAZ-26" value="&lt;font style=&quot;font-size: 14px;&quot;&gt;6 s&lt;/font&gt;" style="text;html=1;strokeColor=none;fillColor=none;align=center;verticalAlign=middle;whiteSpace=wrap;rounded=0;" parent="1" vertex="1">
          <mxGeometry x="410" y="151" width="60" height="30" as="geometry" />
        </mxCell>
        <mxCell id="d6f9d9BtoIqbWKQXRGAZ-28" value="" style="verticalLabelPosition=bottom;verticalAlign=top;html=1;shape=mxgraph.flowchart.on-page_reference;fillColor=none;" parent="1" vertex="1">
          <mxGeometry x="270" y="180" width="60" height="60" as="geometry" />
        </mxCell>
        <mxCell id="d6f9d9BtoIqbWKQXRGAZ-29" value="" style="endArrow=classic;html=1;rounded=0;exitX=0.5;exitY=0;exitDx=0;exitDy=0;entryX=1;entryY=0.5;entryDx=0;entryDy=0;entryPerimeter=0;" parent="1" source="d6f9d9BtoIqbWKQXRGAZ-20" target="d6f9d9BtoIqbWKQXRGAZ-28" edge="1">
          <mxGeometry width="50" height="50" relative="1" as="geometry">
            <mxPoint x="330" y="140" as="sourcePoint" />
            <mxPoint x="380" y="90" as="targetPoint" />
          </mxGeometry>
        </mxCell>
        <mxCell id="d6f9d9BtoIqbWKQXRGAZ-30" value="" style="endArrow=classic;html=1;rounded=0;exitX=0;exitY=0.5;exitDx=0;exitDy=0;exitPerimeter=0;entryX=0.25;entryY=0;entryDx=0;entryDy=0;edgeStyle=orthogonalEdgeStyle;" parent="1" source="d6f9d9BtoIqbWKQXRGAZ-28" target="d6f9d9BtoIqbWKQXRGAZ-14" edge="1">
          <mxGeometry width="50" height="50" relative="1" as="geometry">
            <mxPoint x="150" y="280" as="sourcePoint" />
            <mxPoint x="200" y="230" as="targetPoint" />
            <Array as="points">
              <mxPoint x="40" y="210" />
              <mxPoint x="40" y="130" />
            </Array>
          </mxGeometry>
        </mxCell>
        <mxCell id="d6f9d9BtoIqbWKQXRGAZ-33" value="" style="verticalLabelPosition=bottom;verticalAlign=top;html=1;shape=mxgraph.flowchart.on-page_reference;fillColor=none;" parent="1" vertex="1">
          <mxGeometry x="180" y="-20" width="60" height="60" as="geometry" />
        </mxCell>
        <mxCell id="d6f9d9BtoIqbWKQXRGAZ-34" value="" style="endArrow=classic;html=1;rounded=0;exitX=0.75;exitY=1;exitDx=0;exitDy=0;edgeStyle=orthogonalEdgeStyle;entryX=0.5;entryY=1;entryDx=0;entryDy=0;entryPerimeter=0;" parent="1" source="d6f9d9BtoIqbWKQXRGAZ-14" target="d6f9d9BtoIqbWKQXRGAZ-33" edge="1">
          <mxGeometry width="50" height="50" relative="1" as="geometry">
            <mxPoint x="150" y="130" as="sourcePoint" />
            <mxPoint x="200" y="80" as="targetPoint" />
          </mxGeometry>
        </mxCell>
        <mxCell id="d6f9d9BtoIqbWKQXRGAZ-35" value="" style="rounded=0;whiteSpace=wrap;html=1;rotation=-90;fillColor=#000000;" parent="1" vertex="1">
          <mxGeometry x="60" y="-47.5" width="60" height="15" as="geometry" />
        </mxCell>
        <mxCell id="d6f9d9BtoIqbWKQXRGAZ-36" value="" style="endArrow=classic;html=1;rounded=0;exitX=0.145;exitY=0.145;exitDx=0;exitDy=0;exitPerimeter=0;entryX=0.5;entryY=1;entryDx=0;entryDy=0;edgeStyle=orthogonalEdgeStyle;" parent="1" source="d6f9d9BtoIqbWKQXRGAZ-33" target="d6f9d9BtoIqbWKQXRGAZ-35" edge="1">
          <mxGeometry width="50" height="50" relative="1" as="geometry">
            <mxPoint x="290" y="-20" as="sourcePoint" />
            <mxPoint x="180" y="-90" as="targetPoint" />
            <Array as="points">
              <mxPoint x="189" y="-40" />
            </Array>
          </mxGeometry>
        </mxCell>
        <mxCell id="d6f9d9BtoIqbWKQXRGAZ-37" value="" style="endArrow=classic;html=1;rounded=0;exitX=0.855;exitY=0.145;exitDx=0;exitDy=0;exitPerimeter=0;entryX=0.25;entryY=1;entryDx=0;entryDy=0;edgeStyle=orthogonalEdgeStyle;" parent="1" source="d6f9d9BtoIqbWKQXRGAZ-4" target="d6f9d9BtoIqbWKQXRGAZ-35" edge="1">
          <mxGeometry width="50" height="50" relative="1" as="geometry">
            <mxPoint x="-10" y="60" as="sourcePoint" />
            <mxPoint x="40" y="10" as="targetPoint" />
            <Array as="points">
              <mxPoint x="-29" y="50" />
              <mxPoint x="130" y="50" />
              <mxPoint x="130" y="-25" />
            </Array>
          </mxGeometry>
        </mxCell>
        <mxCell id="d6f9d9BtoIqbWKQXRGAZ-39" value="&lt;font style=&quot;font-size: 14px;&quot;&gt;p = 2&lt;/font&gt;" style="text;html=1;strokeColor=none;fillColor=none;align=center;verticalAlign=middle;whiteSpace=wrap;rounded=0;" parent="1" vertex="1">
          <mxGeometry x="40" y="60" width="60" height="30" as="geometry" />
        </mxCell>
        <mxCell id="d6f9d9BtoIqbWKQXRGAZ-40" value="&lt;font style=&quot;font-size: 14px;&quot;&gt;p = 1&lt;/font&gt;" style="text;html=1;strokeColor=none;fillColor=none;align=center;verticalAlign=middle;whiteSpace=wrap;rounded=0;" parent="1" vertex="1">
          <mxGeometry x="60" y="-10" width="60" height="30" as="geometry" />
        </mxCell>
        <mxCell id="d6f9d9BtoIqbWKQXRGAZ-41" value="" style="endArrow=classic;html=1;rounded=0;exitX=0.75;exitY=0;exitDx=0;exitDy=0;entryX=0.5;entryY=0;entryDx=0;entryDy=0;entryPerimeter=0;edgeStyle=orthogonalEdgeStyle;" parent="1" source="d6f9d9BtoIqbWKQXRGAZ-35" target="d6f9d9BtoIqbWKQXRGAZ-33" edge="1">
          <mxGeometry width="50" height="50" relative="1" as="geometry">
            <mxPoint x="290" y="-80" as="sourcePoint" />
            <mxPoint x="220" y="-130" as="targetPoint" />
            <Array as="points">
              <mxPoint x="72" y="-55" />
              <mxPoint x="72" y="-80" />
              <mxPoint x="210" y="-80" />
            </Array>
          </mxGeometry>
        </mxCell>
        <mxCell id="d6f9d9BtoIqbWKQXRGAZ-42" value="" style="endArrow=classic;html=1;rounded=0;exitX=0.5;exitY=0;exitDx=0;exitDy=0;entryX=0;entryY=0.5;entryDx=0;entryDy=0;entryPerimeter=0;edgeStyle=orthogonalEdgeStyle;" parent="1" source="d6f9d9BtoIqbWKQXRGAZ-35" target="d6f9d9BtoIqbWKQXRGAZ-43" edge="1">
          <mxGeometry width="50" height="50" relative="1" as="geometry">
            <mxPoint x="390" y="10" as="sourcePoint" />
            <mxPoint x="310" y="-60" as="targetPoint" />
            <Array as="points">
              <mxPoint x="60" y="-40" />
              <mxPoint x="60" y="-100" />
              <mxPoint x="230" y="-100" />
              <mxPoint x="230" y="-78" />
            </Array>
          </mxGeometry>
        </mxCell>
        <mxCell id="d6f9d9BtoIqbWKQXRGAZ-43" value="" style="verticalLabelPosition=bottom;verticalAlign=top;html=1;shape=mxgraph.flowchart.on-page_reference;fillColor=none;" parent="1" vertex="1">
          <mxGeometry x="380" y="-107.5" width="60" height="60" as="geometry" />
        </mxCell>
        <mxCell id="d6f9d9BtoIqbWKQXRGAZ-44" value="" style="endArrow=classic;html=1;rounded=0;exitX=0.25;exitY=0;exitDx=0;exitDy=0;entryX=1;entryY=0.5;entryDx=0;entryDy=0;entryPerimeter=0;edgeStyle=orthogonalEdgeStyle;" parent="1" source="d6f9d9BtoIqbWKQXRGAZ-35" target="d6f9d9BtoIqbWKQXRGAZ-11" edge="1">
          <mxGeometry width="50" height="50" relative="1" as="geometry">
            <mxPoint x="-10" y="20" as="sourcePoint" />
            <mxPoint as="targetPoint" />
          </mxGeometry>
        </mxCell>
        <mxCell id="d6f9d9BtoIqbWKQXRGAZ-45" value="" style="rounded=0;whiteSpace=wrap;html=1;rotation=-90;fillColor=#000000;" parent="1" vertex="1">
          <mxGeometry x="270" y="2.5" width="60" height="15" as="geometry" />
        </mxCell>
        <mxCell id="d6f9d9BtoIqbWKQXRGAZ-46" value="" style="endArrow=classic;html=1;rounded=0;exitX=1;exitY=0.5;exitDx=0;exitDy=0;exitPerimeter=0;entryX=0.5;entryY=0;entryDx=0;entryDy=0;" parent="1" source="d6f9d9BtoIqbWKQXRGAZ-33" target="d6f9d9BtoIqbWKQXRGAZ-45" edge="1">
          <mxGeometry width="50" height="50" relative="1" as="geometry">
            <mxPoint x="490" y="50" as="sourcePoint" />
            <mxPoint x="540" as="targetPoint" />
          </mxGeometry>
        </mxCell>
        <mxCell id="d6f9d9BtoIqbWKQXRGAZ-47" value="" style="endArrow=classic;html=1;rounded=0;exitX=0.75;exitY=1;exitDx=0;exitDy=0;entryX=0.5;entryY=0;entryDx=0;entryDy=0;entryPerimeter=0;edgeStyle=orthogonalEdgeStyle;" parent="1" source="d6f9d9BtoIqbWKQXRGAZ-45" target="d6f9d9BtoIqbWKQXRGAZ-11" edge="1">
          <mxGeometry width="50" height="50" relative="1" as="geometry">
            <mxPoint x="390" y="40" as="sourcePoint" />
            <mxPoint x="440" y="-10" as="targetPoint" />
            <Array as="points">
              <mxPoint x="318" y="-5" />
              <mxPoint x="318" y="-140" />
              <mxPoint x="-50" y="-140" />
            </Array>
          </mxGeometry>
        </mxCell>
        <mxCell id="d6f9d9BtoIqbWKQXRGAZ-48" value="" style="endArrow=classic;html=1;rounded=0;exitX=0.5;exitY=1;exitDx=0;exitDy=0;entryX=0.5;entryY=1;entryDx=0;entryDy=0;entryPerimeter=0;edgeStyle=orthogonalEdgeStyle;" parent="1" source="d6f9d9BtoIqbWKQXRGAZ-45" target="d6f9d9BtoIqbWKQXRGAZ-43" edge="1">
          <mxGeometry width="50" height="50" relative="1" as="geometry">
            <mxPoint x="460" y="50" as="sourcePoint" />
            <mxPoint x="510" as="targetPoint" />
          </mxGeometry>
        </mxCell>
        <mxCell id="d6f9d9BtoIqbWKQXRGAZ-49" value="" style="endArrow=classic;html=1;rounded=0;exitX=0.25;exitY=1;exitDx=0;exitDy=0;entryX=0.5;entryY=1;entryDx=0;entryDy=0;entryPerimeter=0;edgeStyle=orthogonalEdgeStyle;" parent="1" source="d6f9d9BtoIqbWKQXRGAZ-45" target="d6f9d9BtoIqbWKQXRGAZ-7" edge="1">
          <mxGeometry width="50" height="50" relative="1" as="geometry">
            <mxPoint x="470" y="60" as="sourcePoint" />
            <mxPoint x="520" y="10" as="targetPoint" />
            <Array as="points">
              <mxPoint x="320" y="25" />
              <mxPoint x="320" y="70" />
              <mxPoint x="240" y="70" />
              <mxPoint x="240" y="290" />
              <mxPoint x="-170" y="290" />
            </Array>
          </mxGeometry>
        </mxCell>
        <mxCell id="d6f9d9BtoIqbWKQXRGAZ-50" value="" style="endArrow=classic;html=1;rounded=0;exitX=1;exitY=0.5;exitDx=0;exitDy=0;exitPerimeter=0;entryX=0.5;entryY=0;entryDx=0;entryDy=0;" parent="1" source="d6f9d9BtoIqbWKQXRGAZ-43" target="d6f9d9BtoIqbWKQXRGAZ-51" edge="1">
          <mxGeometry width="50" height="50" relative="1" as="geometry">
            <mxPoint x="620" y="-60" as="sourcePoint" />
            <mxPoint x="560" y="-77" as="targetPoint" />
          </mxGeometry>
        </mxCell>
        <mxCell id="d6f9d9BtoIqbWKQXRGAZ-51" value="" style="rounded=0;whiteSpace=wrap;html=1;rotation=-90;fillColor=#FFFFFF;" parent="1" vertex="1">
          <mxGeometry x="550" y="-85" width="60" height="15" as="geometry" />
        </mxCell>
        <mxCell id="d6f9d9BtoIqbWKQXRGAZ-55" value="&lt;font style=&quot;font-size: 14px;&quot;&gt;8,4 min&lt;/font&gt;" style="text;html=1;strokeColor=none;fillColor=none;align=center;verticalAlign=middle;whiteSpace=wrap;rounded=0;" parent="1" vertex="1">
          <mxGeometry x="550" y="-137.5" width="60" height="30" as="geometry" />
        </mxCell>
        <mxCell id="d6f9d9BtoIqbWKQXRGAZ-71" value="&lt;font style=&quot;font-size: 14px;&quot;&gt;Fronta na lanovku&lt;/font&gt;" style="text;html=1;strokeColor=none;fillColor=none;align=center;verticalAlign=middle;whiteSpace=wrap;rounded=0;" parent="1" vertex="1">
          <mxGeometry x="-325" y="140" width="70" height="30" as="geometry" />
        </mxCell>
        <mxCell id="d6f9d9BtoIqbWKQXRGAZ-72" value="&lt;font style=&quot;font-size: 14px;&quot;&gt;Kapacita sedačky&lt;/font&gt;" style="text;html=1;strokeColor=none;fillColor=none;align=center;verticalAlign=middle;whiteSpace=wrap;rounded=0;" parent="1" vertex="1">
          <mxGeometry x="-140" y="-100" width="60" height="30" as="geometry" />
        </mxCell>
        <mxCell id="d6f9d9BtoIqbWKQXRGAZ-73" value="" style="endArrow=classic;html=1;rounded=0;exitX=0.5;exitY=1;exitDx=0;exitDy=0;entryX=0.5;entryY=1;entryDx=0;entryDy=0;entryPerimeter=0;edgeStyle=orthogonalEdgeStyle;" parent="1" source="d6f9d9BtoIqbWKQXRGAZ-51" target="d6f9d9BtoIqbWKQXRGAZ-74" edge="1">
          <mxGeometry width="50" height="50" relative="1" as="geometry">
            <mxPoint x="750" y="-90" as="sourcePoint" />
            <mxPoint x="730" y="-77" as="targetPoint" />
          </mxGeometry>
        </mxCell>
        <mxCell id="d6f9d9BtoIqbWKQXRGAZ-74" value="" style="verticalLabelPosition=bottom;verticalAlign=top;html=1;shape=mxgraph.flowchart.on-page_reference;fillColor=none;" parent="1" vertex="1">
          <mxGeometry x="760" y="-210" width="60" height="60" as="geometry" />
        </mxCell>
        <mxCell id="d6f9d9BtoIqbWKQXRGAZ-87" value="" style="endArrow=classic;html=1;rounded=0;exitX=0;exitY=0.5;exitDx=0;exitDy=0;exitPerimeter=0;entryX=0.5;entryY=1;entryDx=0;entryDy=0;" parent="1" source="d6f9d9BtoIqbWKQXRGAZ-74" target="d6f9d9BtoIqbWKQXRGAZ-88" edge="1">
          <mxGeometry width="50" height="50" relative="1" as="geometry">
            <mxPoint x="450" y="-270" as="sourcePoint" />
            <mxPoint x="480" y="-180" as="targetPoint" />
          </mxGeometry>
        </mxCell>
        <mxCell id="d6f9d9BtoIqbWKQXRGAZ-88" value="" style="rounded=0;whiteSpace=wrap;html=1;rotation=-90;fillColor=#FFFFFF;" parent="1" vertex="1">
          <mxGeometry x="640" y="-187.5" width="60" height="15" as="geometry" />
        </mxCell>
        <mxCell id="d6f9d9BtoIqbWKQXRGAZ-90" value="&lt;font style=&quot;font-size: 14px;&quot;&gt;3 - 5 min&lt;/font&gt;" style="text;html=1;strokeColor=none;fillColor=none;align=center;verticalAlign=middle;whiteSpace=wrap;rounded=0;" parent="1" vertex="1">
          <mxGeometry x="640" y="-245" width="60" height="30" as="geometry" />
        </mxCell>
        <mxCell id="d6f9d9BtoIqbWKQXRGAZ-91" value="" style="endArrow=classic;html=1;rounded=0;exitX=0.5;exitY=0;exitDx=0;exitDy=0;edgeStyle=orthogonalEdgeStyle;entryX=0.5;entryY=1;entryDx=0;entryDy=0;entryPerimeter=0;" parent="1" source="d6f9d9BtoIqbWKQXRGAZ-88" target="UBZR0KBog6GGiBJ8UuVx-93" edge="1">
          <mxGeometry width="50" height="50" relative="1" as="geometry">
            <mxPoint x="260" y="-240" as="sourcePoint" />
            <mxPoint x="500" y="-230" as="targetPoint" />
          </mxGeometry>
        </mxCell>
        <mxCell id="d6f9d9BtoIqbWKQXRGAZ-92" value="" style="verticalLabelPosition=bottom;verticalAlign=top;html=1;shape=mxgraph.flowchart.on-page_reference;fillColor=none;" parent="1" vertex="1">
          <mxGeometry x="300" y="-290" width="60" height="60" as="geometry" />
        </mxCell>
        <mxCell id="d6f9d9BtoIqbWKQXRGAZ-93" value="" style="endArrow=classic;html=1;rounded=0;exitX=0.145;exitY=0.855;exitDx=0;exitDy=0;exitPerimeter=0;entryX=0.5;entryY=1;entryDx=0;entryDy=0;edgeStyle=orthogonalEdgeStyle;" parent="1" source="d6f9d9BtoIqbWKQXRGAZ-92" target="d6f9d9BtoIqbWKQXRGAZ-94" edge="1">
          <mxGeometry width="50" height="50" relative="1" as="geometry">
            <mxPoint x="90" y="-240" as="sourcePoint" />
            <mxPoint x="190" y="-230" as="targetPoint" />
            <Array as="points">
              <mxPoint x="309" y="-222" />
            </Array>
          </mxGeometry>
        </mxCell>
        <mxCell id="d6f9d9BtoIqbWKQXRGAZ-94" value="" style="rounded=0;whiteSpace=wrap;html=1;rotation=-90;fillColor=#000000;" parent="1" vertex="1">
          <mxGeometry x="130" y="-230" width="60" height="15" as="geometry" />
        </mxCell>
        <mxCell id="d6f9d9BtoIqbWKQXRGAZ-95" value="" style="endArrow=classic;html=1;rounded=0;exitX=0.5;exitY=0;exitDx=0;exitDy=0;entryX=0.5;entryY=0;entryDx=0;entryDy=0;entryPerimeter=0;edgeStyle=orthogonalEdgeStyle;" parent="1" source="d6f9d9BtoIqbWKQXRGAZ-94" target="AAFjQnPi5kUjQPwpxVuT-1" edge="1">
          <mxGeometry width="50" height="50" relative="1" as="geometry">
            <mxPoint x="-180" y="-200" as="sourcePoint" />
            <mxPoint x="-130" y="-250" as="targetPoint" />
          </mxGeometry>
        </mxCell>
        <mxCell id="d6f9d9BtoIqbWKQXRGAZ-96" value="&lt;font style=&quot;font-size: 14px;&quot;&gt;95 %&lt;/font&gt;" style="text;html=1;strokeColor=none;fillColor=none;align=center;verticalAlign=middle;whiteSpace=wrap;rounded=0;" parent="1" vertex="1">
          <mxGeometry x="130" y="-190" width="60" height="30" as="geometry" />
        </mxCell>
        <mxCell id="d6f9d9BtoIqbWKQXRGAZ-97" value="" style="rounded=0;whiteSpace=wrap;html=1;rotation=-90;fillColor=#000000;" parent="1" vertex="1">
          <mxGeometry x="130" y="-335" width="60" height="15" as="geometry" />
        </mxCell>
        <mxCell id="d6f9d9BtoIqbWKQXRGAZ-99" value="" style="endArrow=classic;html=1;rounded=0;exitX=0.145;exitY=0.145;exitDx=0;exitDy=0;exitPerimeter=0;entryX=0.5;entryY=1;entryDx=0;entryDy=0;edgeStyle=orthogonalEdgeStyle;" parent="1" source="d6f9d9BtoIqbWKQXRGAZ-92" target="d6f9d9BtoIqbWKQXRGAZ-97" edge="1">
          <mxGeometry width="50" height="50" relative="1" as="geometry">
            <mxPoint x="250" y="-320" as="sourcePoint" />
            <mxPoint x="300" y="-370" as="targetPoint" />
            <Array as="points">
              <mxPoint x="310" y="-281" />
              <mxPoint x="310" y="-327" />
            </Array>
          </mxGeometry>
        </mxCell>
        <mxCell id="d6f9d9BtoIqbWKQXRGAZ-100" value="&lt;font style=&quot;font-size: 14px;&quot;&gt;5 %&lt;/font&gt;" style="text;html=1;strokeColor=none;fillColor=none;align=center;verticalAlign=middle;whiteSpace=wrap;rounded=0;" parent="1" vertex="1">
          <mxGeometry x="130" y="-297.5" width="60" height="30" as="geometry" />
        </mxCell>
        <mxCell id="d6f9d9BtoIqbWKQXRGAZ-102" value="" style="verticalLabelPosition=bottom;verticalAlign=top;html=1;shape=mxgraph.flowchart.on-page_reference;fillColor=none;" parent="1" vertex="1">
          <mxGeometry x="30" y="-440" width="60" height="60" as="geometry" />
        </mxCell>
        <mxCell id="d6f9d9BtoIqbWKQXRGAZ-103" value="" style="endArrow=classic;html=1;rounded=0;exitX=1;exitY=0.5;exitDx=0;exitDy=0;exitPerimeter=0;entryX=0.75;entryY=1;entryDx=0;entryDy=0;edgeStyle=orthogonalEdgeStyle;" parent="1" source="d6f9d9BtoIqbWKQXRGAZ-102" target="d6f9d9BtoIqbWKQXRGAZ-97" edge="1">
          <mxGeometry width="50" height="50" relative="1" as="geometry">
            <mxPoint x="170" y="-420" as="sourcePoint" />
            <mxPoint x="220" y="-470" as="targetPoint" />
            <Array as="points">
              <mxPoint x="190" y="-410" />
              <mxPoint x="190" y="-342" />
            </Array>
          </mxGeometry>
        </mxCell>
        <mxCell id="d6f9d9BtoIqbWKQXRGAZ-104" value="&lt;font style=&quot;font-size: 14px;&quot;&gt;30&lt;/font&gt;" style="text;html=1;strokeColor=none;fillColor=none;align=center;verticalAlign=middle;whiteSpace=wrap;rounded=0;" parent="1" vertex="1">
          <mxGeometry x="30" y="-425" width="60" height="30" as="geometry" />
        </mxCell>
        <mxCell id="d6f9d9BtoIqbWKQXRGAZ-105" value="&lt;font style=&quot;font-size: 14px;&quot;&gt;Kafetéria&lt;/font&gt;" style="text;html=1;strokeColor=none;fillColor=none;align=center;verticalAlign=middle;whiteSpace=wrap;rounded=0;" parent="1" vertex="1">
          <mxGeometry x="30" y="-470" width="60" height="30" as="geometry" />
        </mxCell>
        <mxCell id="d6f9d9BtoIqbWKQXRGAZ-106" value="" style="rounded=0;whiteSpace=wrap;html=1;rotation=-90;fillColor=#000000;" parent="1" vertex="1">
          <mxGeometry x="-70" y="-335" width="60" height="15" as="geometry" />
        </mxCell>
        <mxCell id="d6f9d9BtoIqbWKQXRGAZ-107" value="" style="verticalLabelPosition=bottom;verticalAlign=top;html=1;shape=mxgraph.flowchart.on-page_reference;fillColor=none;" parent="1" vertex="1">
          <mxGeometry x="30" y="-357.5" width="60" height="60" as="geometry" />
        </mxCell>
        <mxCell id="d6f9d9BtoIqbWKQXRGAZ-108" value="" style="endArrow=classic;html=1;rounded=0;exitX=0.5;exitY=0;exitDx=0;exitDy=0;entryX=1;entryY=0.5;entryDx=0;entryDy=0;entryPerimeter=0;" parent="1" source="d6f9d9BtoIqbWKQXRGAZ-97" target="d6f9d9BtoIqbWKQXRGAZ-107" edge="1">
          <mxGeometry width="50" height="50" relative="1" as="geometry">
            <mxPoint x="-10" y="-230" as="sourcePoint" />
            <mxPoint x="40" y="-280" as="targetPoint" />
          </mxGeometry>
        </mxCell>
        <mxCell id="d6f9d9BtoIqbWKQXRGAZ-109" value="" style="endArrow=classic;html=1;rounded=0;exitX=0;exitY=0.5;exitDx=0;exitDy=0;exitPerimeter=0;entryX=0.5;entryY=1;entryDx=0;entryDy=0;" parent="1" source="d6f9d9BtoIqbWKQXRGAZ-107" target="d6f9d9BtoIqbWKQXRGAZ-106" edge="1">
          <mxGeometry width="50" height="50" relative="1" as="geometry">
            <mxPoint x="-230" y="-300" as="sourcePoint" />
            <mxPoint x="-40" y="-330" as="targetPoint" />
          </mxGeometry>
        </mxCell>
        <mxCell id="d6f9d9BtoIqbWKQXRGAZ-111" value="" style="endArrow=classic;html=1;rounded=0;exitX=0.75;exitY=0;exitDx=0;exitDy=0;entryX=0;entryY=0.5;entryDx=0;entryDy=0;entryPerimeter=0;edgeStyle=orthogonalEdgeStyle;" parent="1" source="d6f9d9BtoIqbWKQXRGAZ-106" target="d6f9d9BtoIqbWKQXRGAZ-102" edge="1">
          <mxGeometry width="50" height="50" relative="1" as="geometry">
            <mxPoint x="-110" y="-410" as="sourcePoint" />
            <mxPoint x="-10" y="-380" as="targetPoint" />
          </mxGeometry>
        </mxCell>
        <mxCell id="d6f9d9BtoIqbWKQXRGAZ-112" value="" style="endArrow=classic;html=1;rounded=0;exitX=0.5;exitY=0;exitDx=0;exitDy=0;entryX=0.145;entryY=0.145;entryDx=0;entryDy=0;entryPerimeter=0;edgeStyle=orthogonalEdgeStyle;" parent="1" source="d6f9d9BtoIqbWKQXRGAZ-106" target="UBZR0KBog6GGiBJ8UuVx-93" edge="1">
          <mxGeometry width="50" height="50" relative="1" as="geometry">
            <mxPoint x="-190" y="-300" as="sourcePoint" />
            <mxPoint x="-140" y="-350" as="targetPoint" />
            <Array as="points">
              <mxPoint x="-70" y="-328" />
              <mxPoint x="-70" y="-480" />
              <mxPoint x="254" y="-480" />
              <mxPoint x="254" y="-350" />
              <mxPoint x="549" y="-350" />
            </Array>
          </mxGeometry>
        </mxCell>
        <mxCell id="d6f9d9BtoIqbWKQXRGAZ-113" value="" style="shape=waypoint;sketch=0;fillStyle=solid;size=6;pointerEvents=1;points=[];fillColor=none;resizable=0;rotatable=0;perimeter=centerPerimeter;snapToPoint=1;strokeWidth=3;" parent="1" vertex="1">
          <mxGeometry x="580" y="200" width="20" height="20" as="geometry" />
        </mxCell>
        <mxCell id="d6f9d9BtoIqbWKQXRGAZ-114" value="" style="shape=waypoint;sketch=0;fillStyle=solid;size=6;pointerEvents=1;points=[];fillColor=none;resizable=0;rotatable=0;perimeter=centerPerimeter;snapToPoint=1;strokeWidth=3;" parent="1" vertex="1">
          <mxGeometry x="-180" y="230" width="20" height="20" as="geometry" />
        </mxCell>
        <mxCell id="UBZR0KBog6GGiBJ8UuVx-1" value="" style="verticalLabelPosition=bottom;verticalAlign=top;html=1;shape=mxgraph.flowchart.on-page_reference;fillColor=none;" vertex="1" parent="1">
          <mxGeometry x="160" y="-1310" width="60" height="60" as="geometry" />
        </mxCell>
        <mxCell id="UBZR0KBog6GGiBJ8UuVx-2" value="" style="endArrow=classic;html=1;rounded=0;exitX=1;exitY=0.5;exitDx=0;exitDy=0;exitPerimeter=0;entryX=0.5;entryY=0;entryDx=0;entryDy=0;" edge="1" parent="1" source="UBZR0KBog6GGiBJ8UuVx-1" target="UBZR0KBog6GGiBJ8UuVx-3">
          <mxGeometry width="50" height="50" relative="1" as="geometry">
            <mxPoint x="370" y="-1270" as="sourcePoint" />
            <mxPoint x="320" y="-1280" as="targetPoint" />
          </mxGeometry>
        </mxCell>
        <mxCell id="UBZR0KBog6GGiBJ8UuVx-3" value="" style="rounded=0;whiteSpace=wrap;html=1;rotation=-90;fillColor=#000000;" vertex="1" parent="1">
          <mxGeometry x="290" y="-1287.5" width="60" height="15" as="geometry" />
        </mxCell>
        <mxCell id="UBZR0KBog6GGiBJ8UuVx-5" value="" style="verticalLabelPosition=bottom;verticalAlign=top;html=1;shape=mxgraph.flowchart.on-page_reference;fillColor=none;" vertex="1" parent="1">
          <mxGeometry x="420" y="-1310" width="60" height="60" as="geometry" />
        </mxCell>
        <mxCell id="UBZR0KBog6GGiBJ8UuVx-6" value="" style="endArrow=classic;html=1;rounded=0;exitX=0.5;exitY=1;exitDx=0;exitDy=0;entryX=0;entryY=0.5;entryDx=0;entryDy=0;entryPerimeter=0;" edge="1" parent="1" source="UBZR0KBog6GGiBJ8UuVx-3" target="UBZR0KBog6GGiBJ8UuVx-5">
          <mxGeometry width="50" height="50" relative="1" as="geometry">
            <mxPoint x="670" y="-960" as="sourcePoint" />
            <mxPoint x="720" y="-1010" as="targetPoint" />
          </mxGeometry>
        </mxCell>
        <mxCell id="UBZR0KBog6GGiBJ8UuVx-7" value="" style="rounded=0;whiteSpace=wrap;html=1;rotation=-90;fillColor=#FFFFFF;" vertex="1" parent="1">
          <mxGeometry x="550" y="-1287.5" width="60" height="15" as="geometry" />
        </mxCell>
        <mxCell id="UBZR0KBog6GGiBJ8UuVx-8" value="" style="endArrow=classic;html=1;rounded=0;exitX=1;exitY=0.5;exitDx=0;exitDy=0;exitPerimeter=0;entryX=0.5;entryY=0;entryDx=0;entryDy=0;" edge="1" parent="1" source="UBZR0KBog6GGiBJ8UuVx-5" target="UBZR0KBog6GGiBJ8UuVx-7">
          <mxGeometry width="50" height="50" relative="1" as="geometry">
            <mxPoint x="590" y="-1100" as="sourcePoint" />
            <mxPoint x="640" y="-1150" as="targetPoint" />
          </mxGeometry>
        </mxCell>
        <mxCell id="UBZR0KBog6GGiBJ8UuVx-9" value="" style="verticalLabelPosition=bottom;verticalAlign=top;html=1;shape=mxgraph.flowchart.on-page_reference;fillColor=none;" vertex="1" parent="1">
          <mxGeometry x="420" y="-1420" width="60" height="60" as="geometry" />
        </mxCell>
        <mxCell id="UBZR0KBog6GGiBJ8UuVx-10" value="&lt;font style=&quot;font-size: 14px;&quot;&gt;2&lt;/font&gt;" style="text;html=1;strokeColor=none;fillColor=none;align=center;verticalAlign=middle;whiteSpace=wrap;rounded=0;" vertex="1" parent="1">
          <mxGeometry x="420" y="-1405" width="60" height="30" as="geometry" />
        </mxCell>
        <mxCell id="UBZR0KBog6GGiBJ8UuVx-11" value="" style="endArrow=classic;html=1;rounded=0;exitX=0.75;exitY=1;exitDx=0;exitDy=0;entryX=1;entryY=0.5;entryDx=0;entryDy=0;entryPerimeter=0;edgeStyle=orthogonalEdgeStyle;" edge="1" parent="1" source="UBZR0KBog6GGiBJ8UuVx-7" target="UBZR0KBog6GGiBJ8UuVx-9">
          <mxGeometry width="50" height="50" relative="1" as="geometry">
            <mxPoint x="700" y="-1260" as="sourcePoint" />
            <mxPoint x="750" y="-1310" as="targetPoint" />
            <Array as="points">
              <mxPoint x="620" y="-1295" />
              <mxPoint x="620" y="-1390" />
            </Array>
          </mxGeometry>
        </mxCell>
        <mxCell id="UBZR0KBog6GGiBJ8UuVx-12" value="" style="endArrow=classic;html=1;rounded=0;exitX=0;exitY=0.5;exitDx=0;exitDy=0;exitPerimeter=0;entryX=0.75;entryY=0;entryDx=0;entryDy=0;edgeStyle=orthogonalEdgeStyle;" edge="1" parent="1" source="UBZR0KBog6GGiBJ8UuVx-9" target="UBZR0KBog6GGiBJ8UuVx-3">
          <mxGeometry width="50" height="50" relative="1" as="geometry">
            <mxPoint x="150" y="-1400" as="sourcePoint" />
            <mxPoint x="200" y="-1450" as="targetPoint" />
            <Array as="points">
              <mxPoint x="280" y="-1390" />
              <mxPoint x="280" y="-1295" />
            </Array>
          </mxGeometry>
        </mxCell>
        <mxCell id="UBZR0KBog6GGiBJ8UuVx-13" value="" style="endArrow=classic;html=1;rounded=0;exitX=0.855;exitY=0.855;exitDx=0;exitDy=0;exitPerimeter=0;entryX=0.5;entryY=0;entryDx=0;entryDy=0;edgeStyle=orthogonalEdgeStyle;" edge="1" parent="1" source="UBZR0KBog6GGiBJ8UuVx-1" target="UBZR0KBog6GGiBJ8UuVx-14">
          <mxGeometry width="50" height="50" relative="1" as="geometry">
            <mxPoint x="300" y="-1110" as="sourcePoint" />
            <mxPoint x="280" y="-1140" as="targetPoint" />
            <Array as="points">
              <mxPoint x="211" y="-1182" />
            </Array>
          </mxGeometry>
        </mxCell>
        <mxCell id="UBZR0KBog6GGiBJ8UuVx-14" value="" style="rounded=0;whiteSpace=wrap;html=1;rotation=-90;fillColor=#000000;" vertex="1" parent="1">
          <mxGeometry x="290" y="-1190" width="60" height="15" as="geometry" />
        </mxCell>
        <mxCell id="UBZR0KBog6GGiBJ8UuVx-15" value="" style="verticalLabelPosition=bottom;verticalAlign=top;html=1;shape=mxgraph.flowchart.on-page_reference;fillColor=none;" vertex="1" parent="1">
          <mxGeometry x="420" y="-1212.5" width="60" height="60" as="geometry" />
        </mxCell>
        <mxCell id="UBZR0KBog6GGiBJ8UuVx-17" value="" style="rounded=0;whiteSpace=wrap;html=1;rotation=-90;fillColor=#FFFFFF;gradientColor=none;" vertex="1" parent="1">
          <mxGeometry x="550" y="-1190" width="60" height="15" as="geometry" />
        </mxCell>
        <mxCell id="UBZR0KBog6GGiBJ8UuVx-19" value="" style="endArrow=classic;html=1;rounded=0;exitX=0.5;exitY=1;exitDx=0;exitDy=0;entryX=0;entryY=0.5;entryDx=0;entryDy=0;entryPerimeter=0;" edge="1" parent="1" source="UBZR0KBog6GGiBJ8UuVx-14" target="UBZR0KBog6GGiBJ8UuVx-15">
          <mxGeometry width="50" height="50" relative="1" as="geometry">
            <mxPoint x="480" y="-1050" as="sourcePoint" />
            <mxPoint x="530" y="-1100" as="targetPoint" />
          </mxGeometry>
        </mxCell>
        <mxCell id="UBZR0KBog6GGiBJ8UuVx-20" value="" style="endArrow=classic;html=1;rounded=0;exitX=1;exitY=0.5;exitDx=0;exitDy=0;exitPerimeter=0;entryX=0.5;entryY=0;entryDx=0;entryDy=0;" edge="1" parent="1" source="UBZR0KBog6GGiBJ8UuVx-15" target="UBZR0KBog6GGiBJ8UuVx-17">
          <mxGeometry width="50" height="50" relative="1" as="geometry">
            <mxPoint x="540" y="-1120" as="sourcePoint" />
            <mxPoint x="590" y="-1170" as="targetPoint" />
          </mxGeometry>
        </mxCell>
        <mxCell id="UBZR0KBog6GGiBJ8UuVx-21" value="" style="verticalLabelPosition=bottom;verticalAlign=top;html=1;shape=mxgraph.flowchart.on-page_reference;fillColor=none;" vertex="1" parent="1">
          <mxGeometry x="420" y="-1100" width="60" height="60" as="geometry" />
        </mxCell>
        <mxCell id="UBZR0KBog6GGiBJ8UuVx-22" value="" style="endArrow=classic;html=1;rounded=0;exitX=0.25;exitY=1;exitDx=0;exitDy=0;entryX=1;entryY=0.5;entryDx=0;entryDy=0;entryPerimeter=0;edgeStyle=orthogonalEdgeStyle;" edge="1" parent="1" source="UBZR0KBog6GGiBJ8UuVx-17" target="UBZR0KBog6GGiBJ8UuVx-21">
          <mxGeometry width="50" height="50" relative="1" as="geometry">
            <mxPoint x="580" y="-1050" as="sourcePoint" />
            <mxPoint x="630" y="-1100" as="targetPoint" />
            <Array as="points">
              <mxPoint x="620" y="-1168" />
              <mxPoint x="620" y="-1070" />
            </Array>
          </mxGeometry>
        </mxCell>
        <mxCell id="UBZR0KBog6GGiBJ8UuVx-23" value="" style="endArrow=classic;html=1;rounded=0;exitX=0;exitY=0.5;exitDx=0;exitDy=0;exitPerimeter=0;entryX=0.25;entryY=0;entryDx=0;entryDy=0;edgeStyle=orthogonalEdgeStyle;" edge="1" parent="1" source="UBZR0KBog6GGiBJ8UuVx-21" target="UBZR0KBog6GGiBJ8UuVx-14">
          <mxGeometry width="50" height="50" relative="1" as="geometry">
            <mxPoint x="230" y="-1060" as="sourcePoint" />
            <mxPoint x="280" y="-1110" as="targetPoint" />
            <Array as="points">
              <mxPoint x="280" y="-1070" />
              <mxPoint x="280" y="-1168" />
            </Array>
          </mxGeometry>
        </mxCell>
        <mxCell id="UBZR0KBog6GGiBJ8UuVx-25" value="" style="shape=waypoint;sketch=0;fillStyle=solid;size=6;pointerEvents=1;points=[];fillColor=none;resizable=0;rotatable=0;perimeter=centerPerimeter;snapToPoint=1;strokeWidth=3;" vertex="1" parent="1">
          <mxGeometry x="440" y="-1080" width="20" height="20" as="geometry" />
        </mxCell>
        <mxCell id="UBZR0KBog6GGiBJ8UuVx-26" value="&lt;font style=&quot;font-size: 14px;&quot;&gt;Pokladne&lt;/font&gt;" style="text;html=1;strokeColor=none;fillColor=none;align=center;verticalAlign=middle;whiteSpace=wrap;rounded=0;" vertex="1" parent="1">
          <mxGeometry x="420" y="-1450" width="60" height="30" as="geometry" />
        </mxCell>
        <mxCell id="UBZR0KBog6GGiBJ8UuVx-27" value="&lt;font style=&quot;font-size: 14px;&quot;&gt;Samoobslužná pokladňa&lt;/font&gt;" style="text;html=1;strokeColor=none;fillColor=none;align=center;verticalAlign=middle;whiteSpace=wrap;rounded=0;" vertex="1" parent="1">
          <mxGeometry x="405" y="-1140" width="90" height="30" as="geometry" />
        </mxCell>
        <mxCell id="UBZR0KBog6GGiBJ8UuVx-28" value="" style="endArrow=classic;html=1;rounded=0;exitX=0.5;exitY=1;exitDx=0;exitDy=0;entryX=0.145;entryY=0.145;entryDx=0;entryDy=0;entryPerimeter=0;edgeStyle=orthogonalEdgeStyle;" edge="1" parent="1" source="UBZR0KBog6GGiBJ8UuVx-7" target="UBZR0KBog6GGiBJ8UuVx-29">
          <mxGeometry width="50" height="50" relative="1" as="geometry">
            <mxPoint x="800" y="-1170" as="sourcePoint" />
            <mxPoint x="700" y="-1230" as="targetPoint" />
          </mxGeometry>
        </mxCell>
        <mxCell id="UBZR0KBog6GGiBJ8UuVx-29" value="" style="verticalLabelPosition=bottom;verticalAlign=top;html=1;shape=mxgraph.flowchart.on-page_reference;fillColor=none;" vertex="1" parent="1">
          <mxGeometry x="730" y="-1260" width="60" height="60" as="geometry" />
        </mxCell>
        <mxCell id="UBZR0KBog6GGiBJ8UuVx-30" value="" style="endArrow=classic;html=1;rounded=0;exitX=0.5;exitY=1;exitDx=0;exitDy=0;entryX=0.145;entryY=0.855;entryDx=0;entryDy=0;entryPerimeter=0;edgeStyle=orthogonalEdgeStyle;" edge="1" parent="1" source="UBZR0KBog6GGiBJ8UuVx-17" target="UBZR0KBog6GGiBJ8UuVx-29">
          <mxGeometry width="50" height="50" relative="1" as="geometry">
            <mxPoint x="540" y="-1100" as="sourcePoint" />
            <mxPoint x="590" y="-1150" as="targetPoint" />
          </mxGeometry>
        </mxCell>
        <mxCell id="UBZR0KBog6GGiBJ8UuVx-31" value="" style="verticalLabelPosition=bottom;verticalAlign=top;html=1;shape=mxgraph.flowchart.on-page_reference;fillColor=none;" vertex="1" parent="1">
          <mxGeometry x="-110" y="-1310" width="60" height="60" as="geometry" />
        </mxCell>
        <mxCell id="UBZR0KBog6GGiBJ8UuVx-32" value="" style="rounded=0;whiteSpace=wrap;html=1;rotation=-90;fillColor=none;" vertex="1" parent="1">
          <mxGeometry x="30" y="-1287.5" width="60" height="15" as="geometry" />
        </mxCell>
        <mxCell id="UBZR0KBog6GGiBJ8UuVx-33" value="" style="endArrow=classic;html=1;rounded=0;exitX=0.5;exitY=1;exitDx=0;exitDy=0;entryX=0;entryY=0.5;entryDx=0;entryDy=0;entryPerimeter=0;" edge="1" parent="1" source="UBZR0KBog6GGiBJ8UuVx-32" target="UBZR0KBog6GGiBJ8UuVx-1">
          <mxGeometry width="50" height="50" relative="1" as="geometry">
            <mxPoint x="50" y="-1070" as="sourcePoint" />
            <mxPoint x="100" y="-1120" as="targetPoint" />
          </mxGeometry>
        </mxCell>
        <mxCell id="UBZR0KBog6GGiBJ8UuVx-34" value="" style="endArrow=classic;html=1;rounded=0;exitX=1;exitY=0.5;exitDx=0;exitDy=0;exitPerimeter=0;entryX=0.5;entryY=0;entryDx=0;entryDy=0;" edge="1" parent="1" source="UBZR0KBog6GGiBJ8UuVx-31" target="UBZR0KBog6GGiBJ8UuVx-32">
          <mxGeometry width="50" height="50" relative="1" as="geometry">
            <mxPoint x="-10" y="-1070" as="sourcePoint" />
            <mxPoint x="40" y="-1120" as="targetPoint" />
          </mxGeometry>
        </mxCell>
        <mxCell id="UBZR0KBog6GGiBJ8UuVx-35" value="" style="endArrow=classic;html=1;rounded=0;exitX=0.75;exitY=1;exitDx=0;exitDy=0;entryX=0.5;entryY=0;entryDx=0;entryDy=0;entryPerimeter=0;edgeStyle=orthogonalEdgeStyle;" edge="1" parent="1" source="UBZR0KBog6GGiBJ8UuVx-32" target="UBZR0KBog6GGiBJ8UuVx-31">
          <mxGeometry width="50" height="50" relative="1" as="geometry">
            <mxPoint x="-20" y="-1380" as="sourcePoint" />
            <mxPoint x="30" y="-1430" as="targetPoint" />
            <Array as="points">
              <mxPoint x="78" y="-1295" />
              <mxPoint x="78" y="-1330" />
              <mxPoint x="-80" y="-1330" />
            </Array>
          </mxGeometry>
        </mxCell>
        <mxCell id="UBZR0KBog6GGiBJ8UuVx-36" value="" style="verticalLabelPosition=bottom;verticalAlign=top;html=1;shape=mxgraph.flowchart.on-page_reference;fillColor=none;" vertex="1" parent="1">
          <mxGeometry x="-310" y="-1050" width="60" height="60" as="geometry" />
        </mxCell>
        <mxCell id="UBZR0KBog6GGiBJ8UuVx-37" value="" style="shape=waypoint;sketch=0;fillStyle=solid;size=6;pointerEvents=1;points=[];fillColor=none;resizable=0;rotatable=0;perimeter=centerPerimeter;snapToPoint=1;strokeWidth=3;" vertex="1" parent="1">
          <mxGeometry x="-90" y="-1292.5" width="20" height="20" as="geometry" />
        </mxCell>
        <mxCell id="UBZR0KBog6GGiBJ8UuVx-38" value="" style="shape=waypoint;sketch=0;fillStyle=solid;size=6;pointerEvents=1;points=[];fillColor=none;resizable=0;rotatable=0;perimeter=centerPerimeter;snapToPoint=1;strokeWidth=3;" vertex="1" parent="1">
          <mxGeometry x="-290" y="-1030" width="20" height="20" as="geometry" />
        </mxCell>
        <mxCell id="UBZR0KBog6GGiBJ8UuVx-39" value="" style="rounded=0;whiteSpace=wrap;html=1;rotation=-90;fillColor=#050505;" vertex="1" parent="1">
          <mxGeometry x="-190" y="-1027.5" width="60" height="15" as="geometry" />
        </mxCell>
        <mxCell id="UBZR0KBog6GGiBJ8UuVx-41" value="" style="endArrow=classic;html=1;rounded=0;exitX=1;exitY=0.5;exitDx=0;exitDy=0;exitPerimeter=0;entryX=0.5;entryY=0;entryDx=0;entryDy=0;" edge="1" parent="1" source="UBZR0KBog6GGiBJ8UuVx-36" target="UBZR0KBog6GGiBJ8UuVx-39">
          <mxGeometry width="50" height="50" relative="1" as="geometry">
            <mxPoint x="-180" y="-880" as="sourcePoint" />
            <mxPoint x="-130" y="-930" as="targetPoint" />
          </mxGeometry>
        </mxCell>
        <mxCell id="UBZR0KBog6GGiBJ8UuVx-43" value="" style="endArrow=classic;html=1;rounded=0;exitX=0.5;exitY=1;exitDx=0;exitDy=0;entryX=0;entryY=0.5;entryDx=0;entryDy=0;entryPerimeter=0;edgeStyle=orthogonalEdgeStyle;" edge="1" parent="1" source="UBZR0KBog6GGiBJ8UuVx-39" target="UBZR0KBog6GGiBJ8UuVx-44">
          <mxGeometry width="50" height="50" relative="1" as="geometry">
            <mxPoint x="-80" y="-910" as="sourcePoint" />
            <mxPoint x="-30" y="-960" as="targetPoint" />
          </mxGeometry>
        </mxCell>
        <mxCell id="UBZR0KBog6GGiBJ8UuVx-44" value="" style="verticalLabelPosition=bottom;verticalAlign=top;html=1;shape=mxgraph.flowchart.on-page_reference;fillColor=none;" vertex="1" parent="1">
          <mxGeometry x="-80" y="-1175" width="60" height="60" as="geometry" />
        </mxCell>
        <mxCell id="UBZR0KBog6GGiBJ8UuVx-46" value="" style="rounded=0;whiteSpace=wrap;html=1;rotation=-90;fillColor=#000000;" vertex="1" parent="1">
          <mxGeometry x="30" y="-1152.5" width="60" height="15" as="geometry" />
        </mxCell>
        <mxCell id="UBZR0KBog6GGiBJ8UuVx-47" value="" style="endArrow=classic;html=1;rounded=0;exitX=1;exitY=0.5;exitDx=0;exitDy=0;exitPerimeter=0;entryX=0.5;entryY=0;entryDx=0;entryDy=0;edgeStyle=orthogonalEdgeStyle;" edge="1" parent="1" source="UBZR0KBog6GGiBJ8UuVx-44" target="UBZR0KBog6GGiBJ8UuVx-46">
          <mxGeometry width="50" height="50" relative="1" as="geometry">
            <mxPoint x="50" y="-960" as="sourcePoint" />
            <mxPoint x="100" y="-1010" as="targetPoint" />
          </mxGeometry>
        </mxCell>
        <mxCell id="UBZR0KBog6GGiBJ8UuVx-49" value="" style="endArrow=classic;html=1;rounded=0;exitX=0.5;exitY=1;exitDx=0;exitDy=0;entryX=0.145;entryY=0.855;entryDx=0;entryDy=0;entryPerimeter=0;edgeStyle=orthogonalEdgeStyle;" edge="1" parent="1" source="UBZR0KBog6GGiBJ8UuVx-46" target="UBZR0KBog6GGiBJ8UuVx-1">
          <mxGeometry width="50" height="50" relative="1" as="geometry">
            <mxPoint x="150" y="-990" as="sourcePoint" />
            <mxPoint x="200" y="-1040" as="targetPoint" />
          </mxGeometry>
        </mxCell>
        <mxCell id="UBZR0KBog6GGiBJ8UuVx-50" value="" style="endArrow=classic;html=1;rounded=0;exitX=0.25;exitY=1;exitDx=0;exitDy=0;entryX=0;entryY=0.5;entryDx=0;entryDy=0;entryPerimeter=0;edgeStyle=orthogonalEdgeStyle;" edge="1" parent="1" source="UBZR0KBog6GGiBJ8UuVx-39" target="UBZR0KBog6GGiBJ8UuVx-51">
          <mxGeometry width="50" height="50" relative="1" as="geometry">
            <mxPoint x="-120" y="-910" as="sourcePoint" />
            <mxPoint x="-70" y="-960" as="targetPoint" />
          </mxGeometry>
        </mxCell>
        <mxCell id="UBZR0KBog6GGiBJ8UuVx-51" value="" style="verticalLabelPosition=bottom;verticalAlign=top;html=1;shape=mxgraph.flowchart.on-page_reference;fillColor=none;" vertex="1" parent="1">
          <mxGeometry x="-80" y="-970" width="60" height="60" as="geometry" />
        </mxCell>
        <mxCell id="UBZR0KBog6GGiBJ8UuVx-52" value="" style="endArrow=classic;html=1;rounded=0;exitX=1;exitY=0.5;exitDx=0;exitDy=0;exitPerimeter=0;entryX=0.5;entryY=1;entryDx=0;entryDy=0;edgeStyle=orthogonalEdgeStyle;" edge="1" parent="1" source="UBZR0KBog6GGiBJ8UuVx-51" target="UBZR0KBog6GGiBJ8UuVx-53">
          <mxGeometry width="50" height="50" relative="1" as="geometry">
            <mxPoint x="20" y="-830" as="sourcePoint" />
            <mxPoint x="70" y="-880" as="targetPoint" />
            <Array as="points">
              <mxPoint x="90" y="-940" />
              <mxPoint x="90" y="-1020" />
            </Array>
          </mxGeometry>
        </mxCell>
        <mxCell id="UBZR0KBog6GGiBJ8UuVx-53" value="" style="rounded=0;whiteSpace=wrap;html=1;rotation=-90;fillColor=none;" vertex="1" parent="1">
          <mxGeometry x="30" y="-1027.5" width="60" height="15" as="geometry" />
        </mxCell>
        <mxCell id="UBZR0KBog6GGiBJ8UuVx-54" value="" style="endArrow=classic;html=1;rounded=0;exitX=0.5;exitY=0;exitDx=0;exitDy=0;entryX=0.5;entryY=1;entryDx=0;entryDy=0;entryPerimeter=0;edgeStyle=orthogonalEdgeStyle;" edge="1" parent="1" source="UBZR0KBog6GGiBJ8UuVx-53" target="UBZR0KBog6GGiBJ8UuVx-44">
          <mxGeometry width="50" height="50" relative="1" as="geometry">
            <mxPoint x="-50" y="-1030" as="sourcePoint" />
            <mxPoint y="-1080" as="targetPoint" />
          </mxGeometry>
        </mxCell>
        <mxCell id="UBZR0KBog6GGiBJ8UuVx-55" value="&lt;font style=&quot;font-size: 14px;&quot;&gt;9 h&lt;/font&gt;" style="text;html=1;strokeColor=none;fillColor=none;align=center;verticalAlign=middle;whiteSpace=wrap;rounded=0;" vertex="1" parent="1">
          <mxGeometry x="30" y="-1080" width="60" height="30" as="geometry" />
        </mxCell>
        <mxCell id="UBZR0KBog6GGiBJ8UuVx-56" value="&lt;font style=&quot;font-size: 14px;&quot;&gt;Autobus&lt;/font&gt;" style="text;html=1;strokeColor=none;fillColor=none;align=center;verticalAlign=middle;whiteSpace=wrap;rounded=0;" vertex="1" parent="1">
          <mxGeometry x="-310" y="-1085" width="60" height="30" as="geometry" />
        </mxCell>
        <mxCell id="UBZR0KBog6GGiBJ8UuVx-57" value="&lt;font style=&quot;font-size: 14px;&quot;&gt;Zákazníci&lt;/font&gt;" style="text;html=1;strokeColor=none;fillColor=none;align=center;verticalAlign=middle;whiteSpace=wrap;rounded=0;" vertex="1" parent="1">
          <mxGeometry x="-110" y="-1245" width="60" height="30" as="geometry" />
        </mxCell>
        <mxCell id="UBZR0KBog6GGiBJ8UuVx-58" value="&lt;font style=&quot;font-size: 14px;&quot;&gt;10&lt;/font&gt;" style="text;html=1;strokeColor=none;fillColor=none;align=center;verticalAlign=middle;whiteSpace=wrap;rounded=0;" vertex="1" parent="1">
          <mxGeometry x="80" y="-1175" width="60" height="22.5" as="geometry" />
        </mxCell>
        <mxCell id="UBZR0KBog6GGiBJ8UuVx-61" value="&lt;font style=&quot;font-size: 14px;&quot;&gt;Fronta k pokladniam&lt;/font&gt;" style="text;html=1;strokeColor=none;fillColor=none;align=center;verticalAlign=middle;whiteSpace=wrap;rounded=0;" vertex="1" parent="1">
          <mxGeometry x="160" y="-1350" width="70" height="30" as="geometry" />
        </mxCell>
        <mxCell id="UBZR0KBog6GGiBJ8UuVx-62" value="Večerný autobus" style="text;html=1;strokeColor=none;fillColor=none;align=center;verticalAlign=middle;whiteSpace=wrap;rounded=0;" vertex="1" parent="1">
          <mxGeometry x="-80" y="-900" width="60" height="30" as="geometry" />
        </mxCell>
        <mxCell id="UBZR0KBog6GGiBJ8UuVx-64" value="" style="verticalLabelPosition=bottom;verticalAlign=top;html=1;shape=mxgraph.flowchart.on-page_reference;fillColor=none;" vertex="1" parent="1">
          <mxGeometry x="-300" y="-610" width="60" height="60" as="geometry" />
        </mxCell>
        <mxCell id="UBZR0KBog6GGiBJ8UuVx-66" value="" style="endArrow=classic;html=1;rounded=0;exitX=0.855;exitY=0.145;exitDx=0;exitDy=0;exitPerimeter=0;entryX=0.5;entryY=0;entryDx=0;entryDy=0;edgeStyle=orthogonalEdgeStyle;" edge="1" parent="1" source="UBZR0KBog6GGiBJ8UuVx-64" target="UBZR0KBog6GGiBJ8UuVx-67">
          <mxGeometry width="50" height="50" relative="1" as="geometry">
            <mxPoint y="-450" as="sourcePoint" />
            <mxPoint x="-210" y="-660" as="targetPoint" />
          </mxGeometry>
        </mxCell>
        <mxCell id="UBZR0KBog6GGiBJ8UuVx-67" value="" style="rounded=0;whiteSpace=wrap;html=1;rotation=-90;fillColor=#000000;" vertex="1" parent="1">
          <mxGeometry x="-130" y="-652.5" width="60" height="15" as="geometry" />
        </mxCell>
        <mxCell id="UBZR0KBog6GGiBJ8UuVx-68" value="" style="rounded=0;whiteSpace=wrap;html=1;rotation=-90;fillColor=#000000;" vertex="1" parent="1">
          <mxGeometry x="-130" y="-535" width="60" height="15" as="geometry" />
        </mxCell>
        <mxCell id="UBZR0KBog6GGiBJ8UuVx-69" value="" style="endArrow=classic;html=1;rounded=0;exitX=0.855;exitY=0.855;exitDx=0;exitDy=0;exitPerimeter=0;entryX=0.5;entryY=0;entryDx=0;entryDy=0;edgeStyle=orthogonalEdgeStyle;" edge="1" parent="1" source="UBZR0KBog6GGiBJ8UuVx-64" target="UBZR0KBog6GGiBJ8UuVx-68">
          <mxGeometry width="50" height="50" relative="1" as="geometry">
            <mxPoint x="-80" y="-370" as="sourcePoint" />
            <mxPoint x="-30" y="-420" as="targetPoint" />
          </mxGeometry>
        </mxCell>
        <mxCell id="UBZR0KBog6GGiBJ8UuVx-71" value="&lt;font style=&quot;font-size: 14px;&quot;&gt;60 %&lt;/font&gt;" style="text;html=1;strokeColor=none;fillColor=none;align=center;verticalAlign=middle;whiteSpace=wrap;rounded=0;" vertex="1" parent="1">
          <mxGeometry x="-130" y="-710" width="60" height="30" as="geometry" />
        </mxCell>
        <mxCell id="UBZR0KBog6GGiBJ8UuVx-72" value="&lt;font style=&quot;font-size: 14px;&quot;&gt;40 %&lt;/font&gt;" style="text;html=1;strokeColor=none;fillColor=none;align=center;verticalAlign=middle;whiteSpace=wrap;rounded=0;" vertex="1" parent="1">
          <mxGeometry x="-130" y="-595" width="60" height="30" as="geometry" />
        </mxCell>
        <mxCell id="UBZR0KBog6GGiBJ8UuVx-73" value="" style="endArrow=classic;html=1;rounded=0;exitX=0.5;exitY=1;exitDx=0;exitDy=0;entryX=0.855;entryY=0.145;entryDx=0;entryDy=0;entryPerimeter=0;edgeStyle=orthogonalEdgeStyle;" edge="1" parent="1" source="UBZR0KBog6GGiBJ8UuVx-67" target="d6f9d9BtoIqbWKQXRGAZ-92">
          <mxGeometry width="50" height="50" relative="1" as="geometry">
            <mxPoint x="930" y="-640" as="sourcePoint" />
            <mxPoint x="980" y="-690" as="targetPoint" />
            <Array as="points">
              <mxPoint x="-92" y="-630" />
              <mxPoint x="351" y="-630" />
            </Array>
          </mxGeometry>
        </mxCell>
        <mxCell id="UBZR0KBog6GGiBJ8UuVx-74" value="" style="endArrow=classic;html=1;rounded=0;exitX=0.25;exitY=1;exitDx=0;exitDy=0;entryX=0.5;entryY=0;entryDx=0;entryDy=0;entryPerimeter=0;edgeStyle=orthogonalEdgeStyle;" edge="1" parent="1" source="UBZR0KBog6GGiBJ8UuVx-68" target="d6f9d9BtoIqbWKQXRGAZ-92">
          <mxGeometry width="50" height="50" relative="1" as="geometry">
            <mxPoint x="160" y="-510" as="sourcePoint" />
            <mxPoint x="210" y="-560" as="targetPoint" />
          </mxGeometry>
        </mxCell>
        <mxCell id="UBZR0KBog6GGiBJ8UuVx-75" value="" style="endArrow=classic;html=1;rounded=0;exitX=0.75;exitY=1;exitDx=0;exitDy=0;entryX=0;entryY=0.5;entryDx=0;entryDy=0;entryPerimeter=0;edgeStyle=orthogonalEdgeStyle;" edge="1" parent="1" source="UBZR0KBog6GGiBJ8UuVx-67" target="UBZR0KBog6GGiBJ8UuVx-76">
          <mxGeometry width="50" height="50" relative="1" as="geometry">
            <mxPoint x="70" y="-710" as="sourcePoint" />
            <mxPoint x="120" y="-760" as="targetPoint" />
          </mxGeometry>
        </mxCell>
        <mxCell id="UBZR0KBog6GGiBJ8UuVx-76" value="" style="verticalLabelPosition=bottom;verticalAlign=top;html=1;shape=mxgraph.flowchart.on-page_reference;fillColor=none;" vertex="1" parent="1">
          <mxGeometry x="30" y="-730" width="60" height="60" as="geometry" />
        </mxCell>
        <mxCell id="UBZR0KBog6GGiBJ8UuVx-77" value="" style="endArrow=classic;html=1;rounded=0;exitX=1;exitY=0.5;exitDx=0;exitDy=0;exitPerimeter=0;entryX=0.5;entryY=0;entryDx=0;entryDy=0;" edge="1" parent="1" source="UBZR0KBog6GGiBJ8UuVx-76" target="UBZR0KBog6GGiBJ8UuVx-79">
          <mxGeometry width="50" height="50" relative="1" as="geometry">
            <mxPoint x="410" y="-750" as="sourcePoint" />
            <mxPoint x="190" y="-700" as="targetPoint" />
          </mxGeometry>
        </mxCell>
        <mxCell id="UBZR0KBog6GGiBJ8UuVx-79" value="" style="rounded=0;whiteSpace=wrap;html=1;rotation=-90;fillColor=#FFFFFF;" vertex="1" parent="1">
          <mxGeometry x="150" y="-707.5" width="60" height="15" as="geometry" />
        </mxCell>
        <mxCell id="UBZR0KBog6GGiBJ8UuVx-80" value="&lt;font style=&quot;font-size: 14px;&quot;&gt;4 h&lt;/font&gt;" style="text;html=1;strokeColor=none;fillColor=none;align=center;verticalAlign=middle;whiteSpace=wrap;rounded=0;" vertex="1" parent="1">
          <mxGeometry x="150" y="-760" width="60" height="30" as="geometry" />
        </mxCell>
        <mxCell id="UBZR0KBog6GGiBJ8UuVx-81" value="" style="endArrow=classic;html=1;rounded=0;exitX=0.5;exitY=1;exitDx=0;exitDy=0;entryX=0.5;entryY=0;entryDx=0;entryDy=0;entryPerimeter=0;edgeStyle=orthogonalEdgeStyle;" edge="1" parent="1" source="UBZR0KBog6GGiBJ8UuVx-79" target="UBZR0KBog6GGiBJ8UuVx-82">
          <mxGeometry width="50" height="50" relative="1" as="geometry">
            <mxPoint x="640" y="-590" as="sourcePoint" />
            <mxPoint x="690" y="-640" as="targetPoint" />
          </mxGeometry>
        </mxCell>
        <mxCell id="UBZR0KBog6GGiBJ8UuVx-82" value="" style="verticalLabelPosition=bottom;verticalAlign=top;html=1;shape=mxgraph.flowchart.on-page_reference;fillColor=none;" vertex="1" parent="1">
          <mxGeometry x="540" y="-442.5" width="60" height="60" as="geometry" />
        </mxCell>
        <mxCell id="UBZR0KBog6GGiBJ8UuVx-86" value="" style="verticalLabelPosition=bottom;verticalAlign=top;html=1;shape=mxgraph.flowchart.on-page_reference;fillColor=none;" vertex="1" parent="1">
          <mxGeometry x="30" y="-587.5" width="60" height="60" as="geometry" />
        </mxCell>
        <mxCell id="UBZR0KBog6GGiBJ8UuVx-87" value="" style="endArrow=classic;html=1;rounded=0;exitX=1;exitY=0.5;exitDx=0;exitDy=0;exitPerimeter=0;entryX=0.5;entryY=0;entryDx=0;entryDy=0;" edge="1" parent="1" source="UBZR0KBog6GGiBJ8UuVx-86" target="UBZR0KBog6GGiBJ8UuVx-88">
          <mxGeometry width="50" height="50" relative="1" as="geometry">
            <mxPoint x="410" y="-607.5" as="sourcePoint" />
            <mxPoint x="190" y="-557.5" as="targetPoint" />
          </mxGeometry>
        </mxCell>
        <mxCell id="UBZR0KBog6GGiBJ8UuVx-88" value="" style="rounded=0;whiteSpace=wrap;html=1;rotation=-90;fillColor=#FFFFFF;" vertex="1" parent="1">
          <mxGeometry x="150" y="-565" width="60" height="15" as="geometry" />
        </mxCell>
        <mxCell id="UBZR0KBog6GGiBJ8UuVx-89" value="&lt;font style=&quot;font-size: 14px;&quot;&gt;8 h&lt;/font&gt;" style="text;html=1;strokeColor=none;fillColor=none;align=center;verticalAlign=middle;whiteSpace=wrap;rounded=0;" vertex="1" parent="1">
          <mxGeometry x="150" y="-617.5" width="60" height="30" as="geometry" />
        </mxCell>
        <mxCell id="UBZR0KBog6GGiBJ8UuVx-90" value="" style="endArrow=classic;html=1;rounded=0;exitX=0.75;exitY=1;exitDx=0;exitDy=0;entryX=0;entryY=0.5;entryDx=0;entryDy=0;entryPerimeter=0;edgeStyle=orthogonalEdgeStyle;" edge="1" parent="1" source="UBZR0KBog6GGiBJ8UuVx-68" target="UBZR0KBog6GGiBJ8UuVx-86">
          <mxGeometry width="50" height="50" relative="1" as="geometry">
            <mxPoint x="-180" y="-400" as="sourcePoint" />
            <mxPoint x="-130" y="-450" as="targetPoint" />
          </mxGeometry>
        </mxCell>
        <mxCell id="UBZR0KBog6GGiBJ8UuVx-91" value="" style="endArrow=classic;html=1;rounded=0;exitX=0.5;exitY=1;exitDx=0;exitDy=0;entryX=0.145;entryY=0.145;entryDx=0;entryDy=0;entryPerimeter=0;edgeStyle=orthogonalEdgeStyle;" edge="1" parent="1" source="UBZR0KBog6GGiBJ8UuVx-88" target="UBZR0KBog6GGiBJ8UuVx-82">
          <mxGeometry width="50" height="50" relative="1" as="geometry">
            <mxPoint x="810" y="-410" as="sourcePoint" />
            <mxPoint x="860" y="-460" as="targetPoint" />
          </mxGeometry>
        </mxCell>
        <mxCell id="UBZR0KBog6GGiBJ8UuVx-93" value="" style="verticalLabelPosition=bottom;verticalAlign=top;html=1;shape=mxgraph.flowchart.on-page_reference;fillColor=none;" vertex="1" parent="1">
          <mxGeometry x="540" y="-290" width="60" height="60" as="geometry" />
        </mxCell>
        <mxCell id="UBZR0KBog6GGiBJ8UuVx-95" value="" style="rounded=0;whiteSpace=wrap;html=1;rotation=-90;fillColor=#000000;" vertex="1" parent="1">
          <mxGeometry x="640" y="-345" width="60" height="15" as="geometry" />
        </mxCell>
        <mxCell id="UBZR0KBog6GGiBJ8UuVx-96" value="" style="endArrow=classic;html=1;rounded=0;exitX=0.5;exitY=0;exitDx=0;exitDy=0;exitPerimeter=0;entryX=0.25;entryY=0;entryDx=0;entryDy=0;edgeStyle=orthogonalEdgeStyle;" edge="1" parent="1" source="UBZR0KBog6GGiBJ8UuVx-93" target="UBZR0KBog6GGiBJ8UuVx-95">
          <mxGeometry width="50" height="50" relative="1" as="geometry">
            <mxPoint x="860" y="-360" as="sourcePoint" />
            <mxPoint x="670" y="-330" as="targetPoint" />
          </mxGeometry>
        </mxCell>
        <mxCell id="UBZR0KBog6GGiBJ8UuVx-97" value="" style="endArrow=classic;html=1;rounded=0;exitX=0.5;exitY=1;exitDx=0;exitDy=0;exitPerimeter=0;entryX=0.75;entryY=0;entryDx=0;entryDy=0;edgeStyle=orthogonalEdgeStyle;" edge="1" parent="1" source="UBZR0KBog6GGiBJ8UuVx-82" target="UBZR0KBog6GGiBJ8UuVx-95">
          <mxGeometry width="50" height="50" relative="1" as="geometry">
            <mxPoint x="890" y="-480" as="sourcePoint" />
            <mxPoint x="940" y="-530" as="targetPoint" />
          </mxGeometry>
        </mxCell>
        <mxCell id="UBZR0KBog6GGiBJ8UuVx-98" value="" style="endArrow=classic;html=1;rounded=0;exitX=0.5;exitY=1;exitDx=0;exitDy=0;entryX=0;entryY=0.5;entryDx=0;entryDy=0;entryPerimeter=0;" edge="1" parent="1" source="UBZR0KBog6GGiBJ8UuVx-95" target="UBZR0KBog6GGiBJ8UuVx-99">
          <mxGeometry width="50" height="50" relative="1" as="geometry">
            <mxPoint x="780" y="-320" as="sourcePoint" />
            <mxPoint x="760" y="-340" as="targetPoint" />
          </mxGeometry>
        </mxCell>
        <mxCell id="UBZR0KBog6GGiBJ8UuVx-99" value="" style="verticalLabelPosition=bottom;verticalAlign=top;html=1;shape=mxgraph.flowchart.on-page_reference;fillColor=none;" vertex="1" parent="1">
          <mxGeometry x="760" y="-367.5" width="60" height="60" as="geometry" />
        </mxCell>
        <mxCell id="UBZR0KBog6GGiBJ8UuVx-100" value="" style="endArrow=classic;html=1;rounded=0;exitX=1;exitY=0.5;exitDx=0;exitDy=0;exitPerimeter=0;entryX=0.5;entryY=0;entryDx=0;entryDy=0;" edge="1" parent="1" source="UBZR0KBog6GGiBJ8UuVx-99" target="UBZR0KBog6GGiBJ8UuVx-101">
          <mxGeometry width="50" height="50" relative="1" as="geometry">
            <mxPoint x="940" y="-260" as="sourcePoint" />
            <mxPoint x="920" y="-310" as="targetPoint" />
          </mxGeometry>
        </mxCell>
        <mxCell id="UBZR0KBog6GGiBJ8UuVx-101" value="" style="rounded=0;whiteSpace=wrap;html=1;rotation=-90;fillColor=#000000;" vertex="1" parent="1">
          <mxGeometry x="890" y="-345" width="60" height="15" as="geometry" />
        </mxCell>
        <mxCell id="UBZR0KBog6GGiBJ8UuVx-102" value="" style="endArrow=classic;html=1;rounded=0;exitX=0;exitY=0.5;exitDx=0;exitDy=0;exitPerimeter=0;entryX=0.5;entryY=1;entryDx=0;entryDy=0;" edge="1" parent="1" source="UBZR0KBog6GGiBJ8UuVx-93" target="UBZR0KBog6GGiBJ8UuVx-114">
          <mxGeometry width="50" height="50" relative="1" as="geometry">
            <mxPoint x="400" y="-190" as="sourcePoint" />
            <mxPoint x="470" y="-260" as="targetPoint" />
          </mxGeometry>
        </mxCell>
        <mxCell id="UBZR0KBog6GGiBJ8UuVx-103" value="&lt;font style=&quot;font-size: 14px;&quot;&gt;Odchod do systému&lt;/font&gt;" style="text;html=1;strokeColor=none;fillColor=none;align=center;verticalAlign=middle;whiteSpace=wrap;rounded=0;" vertex="1" parent="1">
          <mxGeometry x="750" y="-405" width="80" height="30" as="geometry" />
        </mxCell>
        <mxCell id="UBZR0KBog6GGiBJ8UuVx-104" value="&lt;font style=&quot;font-size: 14px;&quot;&gt;lyžovanie&lt;/font&gt;" style="text;html=1;strokeColor=none;fillColor=none;align=center;verticalAlign=middle;whiteSpace=wrap;rounded=0;" vertex="1" parent="1">
          <mxGeometry x="750" y="-245" width="80" height="30" as="geometry" />
        </mxCell>
        <mxCell id="UBZR0KBog6GGiBJ8UuVx-105" value="&lt;font style=&quot;font-size: 14px;&quot;&gt;lyžiari sa vezú&lt;/font&gt;" style="text;html=1;strokeColor=none;fillColor=none;align=center;verticalAlign=middle;whiteSpace=wrap;rounded=0;" vertex="1" parent="1">
          <mxGeometry x="360" y="-150" width="100" height="30" as="geometry" />
        </mxCell>
        <mxCell id="UBZR0KBog6GGiBJ8UuVx-108" value="" style="endArrow=classic;html=1;rounded=0;exitX=0.25;exitY=0;exitDx=0;exitDy=0;entryX=0.5;entryY=1;entryDx=0;entryDy=0;entryPerimeter=0;edgeStyle=orthogonalEdgeStyle;" edge="1" parent="1" source="d6f9d9BtoIqbWKQXRGAZ-20" target="d6f9d9BtoIqbWKQXRGAZ-21">
          <mxGeometry width="50" height="50" relative="1" as="geometry">
            <mxPoint x="510" y="360" as="sourcePoint" />
            <mxPoint x="560" y="310" as="targetPoint" />
            <Array as="points">
              <mxPoint x="423" y="225" />
              <mxPoint x="423" y="260" />
              <mxPoint x="590" y="260" />
            </Array>
          </mxGeometry>
        </mxCell>
        <mxCell id="UBZR0KBog6GGiBJ8UuVx-109" value="" style="endArrow=classic;html=1;rounded=0;exitX=0.5;exitY=0;exitDx=0;exitDy=0;exitPerimeter=0;entryX=0.5;entryY=0;entryDx=0;entryDy=0;edgeStyle=orthogonalEdgeStyle;" edge="1" parent="1" source="d6f9d9BtoIqbWKQXRGAZ-28" target="UBZR0KBog6GGiBJ8UuVx-110">
          <mxGeometry width="50" height="50" relative="1" as="geometry">
            <mxPoint x="400" y="110" as="sourcePoint" />
            <mxPoint x="430" y="100" as="targetPoint" />
          </mxGeometry>
        </mxCell>
        <mxCell id="UBZR0KBog6GGiBJ8UuVx-110" value="" style="rounded=0;whiteSpace=wrap;html=1;rotation=-90;fillColor=#000000;" vertex="1" parent="1">
          <mxGeometry x="410" y="107.5" width="60" height="15" as="geometry" />
        </mxCell>
        <mxCell id="UBZR0KBog6GGiBJ8UuVx-111" value="&lt;font style=&quot;font-size: 14px;&quot;&gt;p = 1&lt;/font&gt;" style="text;html=1;strokeColor=none;fillColor=none;align=center;verticalAlign=middle;whiteSpace=wrap;rounded=0;" vertex="1" parent="1">
          <mxGeometry x="640" y="-405" width="60" height="30" as="geometry" />
        </mxCell>
        <mxCell id="UBZR0KBog6GGiBJ8UuVx-114" value="" style="rounded=0;whiteSpace=wrap;html=1;rotation=-90;fillColor=#000000;" vertex="1" parent="1">
          <mxGeometry x="420" y="-267.5" width="60" height="15" as="geometry" />
        </mxCell>
        <mxCell id="UBZR0KBog6GGiBJ8UuVx-115" value="" style="endArrow=classic;html=1;rounded=0;exitX=0.5;exitY=0;exitDx=0;exitDy=0;entryX=1;entryY=0.5;entryDx=0;entryDy=0;entryPerimeter=0;" edge="1" parent="1" source="UBZR0KBog6GGiBJ8UuVx-114" target="d6f9d9BtoIqbWKQXRGAZ-92">
          <mxGeometry width="50" height="50" relative="1" as="geometry">
            <mxPoint x="360" y="-170" as="sourcePoint" />
            <mxPoint x="410" y="-220" as="targetPoint" />
          </mxGeometry>
        </mxCell>
        <mxCell id="UBZR0KBog6GGiBJ8UuVx-116" value="&lt;span style=&quot;font-size: 14px;&quot;&gt;2 min&lt;/span&gt;" style="text;html=1;strokeColor=none;fillColor=none;align=center;verticalAlign=middle;whiteSpace=wrap;rounded=0;" vertex="1" parent="1">
          <mxGeometry x="545" y="-1340" width="70" height="30" as="geometry" />
        </mxCell>
        <mxCell id="UBZR0KBog6GGiBJ8UuVx-117" value="&lt;span style=&quot;font-size: 14px;&quot;&gt;1,5 min&lt;/span&gt;" style="text;html=1;strokeColor=none;fillColor=none;align=center;verticalAlign=middle;whiteSpace=wrap;rounded=0;" vertex="1" parent="1">
          <mxGeometry x="545" y="-1152.5" width="70" height="30" as="geometry" />
        </mxCell>
      </root>
    </mxGraphModel>
  </diagram>
</mxfile>
